<?xml version="1.0" encoding="utf-8"?>
<!-- Generator: Adobe Illustrator 23.1.0, SVG Export Plug-In . SVG Version: 6.00 Build 0)  -->
<svg version="1.1" id="Layer_1" xmlns="http://www.w3.org/2000/svg" xmlns:xlink="http://www.w3.org/1999/xlink" x="0px" y="0px"
	 viewBox="0 0 104 24.32" style="enable-background:new 0 0 104 24.32;" xml:space="preserve">
<style type="text/css">
	.st0{fill:#E1251B;}
	.st1{fill-rule:evenodd;clip-rule:evenodd;fill:#1D97D5;}
	.st2{fill:#FFFFFF;}
</style>
<g>
	<path class="st0" d="M9.53,10.19l7.52,13.62h-5.23L6.31,13.28l-1.76,2.38v8.14H0V0h4.55v10.77h0.09c0.5-0.93,1.02-1.83,1.52-2.72
		L11.27,0h5.45L9.53,10.19z"/>
	<rect fill="#fff"  x="20.11" y="12.79" width="8.48" height="3.16"/>
	<path fill="#fff" d="M37.2,8.92c0.77-1.27,2.48-2.69,4.98-2.69c3.16,0,5.6,2.2,5.6,7.03v10.56h-4.58V13.74c0-2.1-0.68-3.78-2.63-3.78
		c-1.24,0-2.94,0.96-2.94,3.59v10.25h-4.58V11.76c0-2.01-0.06-3.65-0.12-5.17h3.96l0.22,2.32H37.2z"/>
	<path fill="#fff" d="M93.57,9.1c1.42-2.1,3.19-2.88,5.11-2.88c3,0,5.32,2.14,5.32,7.12v10.46h-4.49v-9.75c0-2.48-0.68-4.12-2.51-4.12
		c-1.27,0-2.69,0.99-2.69,3.41v10.46h-4.49V13.62c0-2.04-0.65-3.68-2.45-3.68c-1.27,0-2.76,1.18-2.76,3.5v10.37h-4.49V11.76
		c0-2.01-0.06-3.65-0.12-5.17h3.9l0.22,2.29h0.09c0.8-1.24,2.32-2.66,4.89-2.66c2.11,0,3.71,1.11,4.4,2.88H93.57z"/>
	<path class="st1" d="M51.63,15.45c-0.51,0-0.93-0.42-0.93-0.93V7.93C50.7,7.41,51.12,7,51.63,7h6.59c0.51,0,0.93,0.42,0.93,0.93
		v6.59c0,0.51-0.42,0.93-0.93,0.93H51.63z"/>
	<path class="st2" d="M58.22,7.18c0.41,0,0.75,0.34,0.75,0.75v6.59c0,0.41-0.34,0.75-0.75,0.75h-6.59c-0.41,0-0.75-0.34-0.75-0.75
		V7.93c0-0.41,0.34-0.75,0.75-0.75H58.22 M58.22,6.81h-6.59c-0.61,0-1.12,0.5-1.12,1.12v6.59c0,0.62,0.5,1.12,1.12,1.12h6.59
		c0.61,0,1.12-0.5,1.12-1.12V7.93C59.34,7.31,58.84,6.81,58.22,6.81"/>
	<path class="st1" d="M69.17,15.45c-0.61,0-1.1-0.49-1.1-1.1V8.09c0-0.61,0.49-1.1,1.1-1.1h6.26c0.61,0,1.1,0.49,1.1,1.1v6.26
		c0,0.61-0.49,1.1-1.1,1.1H69.17z"/>
	<path class="st2" d="M75.43,7.18c0.5,0,0.92,0.41,0.92,0.92v6.26c0,0.5-0.41,0.92-0.92,0.92h-6.26c-0.5,0-0.92-0.41-0.92-0.92V8.09
		c0-0.5,0.41-0.92,0.92-0.92H75.43 M75.43,6.81h-6.26c-0.71,0-1.28,0.57-1.28,1.28v6.26c0,0.71,0.58,1.28,1.28,1.28h6.26
		c0.71,0,1.28-0.58,1.28-1.28V8.09C76.71,7.39,76.14,6.81,75.43,6.81"/>
	<path class="st1" d="M51.8,24.14c-0.61,0-1.1-0.49-1.1-1.1v-6.26c0-0.61,0.49-1.1,1.1-1.1h6.26c0.61,0,1.1,0.49,1.1,1.1v6.26
		c0,0.61-0.49,1.1-1.1,1.1H51.8z"/>
	<path class="st2" d="M58.06,15.86c0.5,0,0.92,0.41,0.92,0.92v6.26c0,0.5-0.41,0.92-0.92,0.92H51.8c-0.5,0-0.92-0.41-0.92-0.92
		v-6.26c0-0.5,0.41-0.92,0.92-0.92H58.06 M58.06,15.5H51.8c-0.71,0-1.28,0.58-1.28,1.28v6.26c0,0.71,0.58,1.28,1.28,1.28h6.26
		c0.71,0,1.28-0.57,1.28-1.28v-6.26C59.34,16.07,58.76,15.5,58.06,15.5"/>
	<path class="st1" d="M60.49,24.14c-0.61,0-1.1-0.49-1.1-1.1v-6.26c0-0.61,0.49-1.1,1.1-1.1h6.26c0.61,0,1.1,0.49,1.1,1.1v6.26
		c0,0.61-0.49,1.1-1.1,1.1H60.49z"/>
	<path class="st2" d="M66.74,15.86c0.5,0,0.92,0.41,0.92,0.92v6.26c0,0.5-0.41,0.92-0.92,0.92h-6.26c-0.5,0-0.92-0.41-0.92-0.92
		v-6.26c0-0.5,0.41-0.92,0.92-0.92H66.74 M66.74,15.5h-6.26c-0.71,0-1.28,0.58-1.28,1.28v6.26c0,0.71,0.58,1.28,1.28,1.28h6.26
		c0.71,0,1.28-0.57,1.28-1.28v-6.26C68.03,16.07,67.45,15.5,66.74,15.5"/>
	<path  class="st1" d="M69.17,24.14c-0.61,0-1.1-0.49-1.1-1.1v-6.26c0-0.61,0.49-1.1,1.1-1.1h6.26c0.61,0,1.1,0.49,1.1,1.1v6.26
		c0,0.61-0.49,1.1-1.1,1.1H69.17z"/>
	<path class="st2"  d="M75.43,15.86c0.5,0,0.92,0.41,0.92,0.92v6.26c0,0.5-0.41,0.92-0.92,0.92h-6.26c-0.5,0-0.92-0.41-0.92-0.92
		v-6.26c0-0.5,0.41-0.92,0.92-0.92H75.43 M75.43,15.5h-6.26c-0.71,0-1.28,0.58-1.28,1.28v6.26c0,0.71,0.58,1.28,1.28,1.28h6.26
		c0.71,0,1.28-0.57,1.28-1.28v-6.26C76.71,16.07,76.14,15.5,75.43,15.5"/>
</g>
</svg>
